<svg width="300" height="300" xmlns="http://www.w3.org/2000/svg">
  <defs>
    <radialGradient id="haloGrad" cx="50%" cy="50%" r="50%">
      <stop offset="0%" stop-color="#ffffff" stop-opacity="1"/>
      <stop offset="100%" stop-color="#fce4ec" stop-opacity="0.3"/>
    </radialGradient>
    <linearGradient id="wingGradient" x1="0%" y1="0%" x2="100%" y2="100%">
      <stop offset="0%" stop-color="#ffffff" stop-opacity="0.9"/>
      <stop offset="50%" stop-color="#fce4ec" stop-opacity="0.8"/>
      <stop offset="100%" stop-color="#f8bbd0" stop-opacity="0.7"/>
    </linearGradient>
    <linearGradient id="robeGradient" x1="0%" y1="0%" x2="0%" y2="100%">
      <stop offset="0%" stop-color="#fce4ec" stop-opacity="0.9"/>
      <stop offset="100%" stop-color="#f8bbd0" stop-opacity="0.9"/>
    </linearGradient>
    <filter id="glow" x="-20%" y="-20%" width="140%" height="140%">
      <feGaussianBlur stdDeviation="2" result="blur"/>
      <feComposite in="SourceGraphic" in2="blur" operator="over"/>
    </filter>
  </defs>
  
  <!-- Angel -->
  <g transform="translate(150, 150)">
    <!-- Halo -->
    <ellipse cx="0" cy="-75" rx="30" ry="6" fill="url(#haloGrad)" filter="url(#glow)"/>
    
    <!-- Head -->
    <circle cx="0" cy="-55" r="18" fill="#fef8ff" stroke="#f8bbd0" stroke-width="1"/>
    
    <!-- Hair -->
    <path d="M-18,-65 C-20,-70 -15,-73 -10,-70 C-5,-72 5,-72 10,-70 C15,-73 20,-70 18,-65" 
          fill="#fce4ec" stroke="#f8bbd0" stroke-width="0.5"/>
    
    <!-- Wings - detailed feathered design -->
    <!-- Left wing -->
    <g>
      <path d="M-25,-35
               C-60,-45 -80,-35 -90,-15
               C-95,-5 -95,5 -90,15
               C-85,25 -75,30 -65,32
               L-55,30
               C-45,28 -35,25 -30,20
               L-25,10
               L-25,-35
               Z" 
            fill="url(#wingGradient)" 
            stroke="#f8bbd0" 
            stroke-width="1"/>
      <!-- Wing feather details -->
      <path d="M-30,-30 C-50,-35 -70,-30 -80,-15 M-35,-25 C-55,-30 -70,-25 -80,-10 M-40,-20 C-60,-25 -70,-20 -80,-5"
            fill="none" stroke="#f8bbd0" stroke-width="0.5" opacity="0.5"/>
    </g>
    
    <!-- Right wing -->
    <g>
      <path d="M25,-35
               C60,-45 80,-35 90,-15
               C95,-5 95,5 90,15
               C85,25 75,30 65,32
               L55,30
               C45,28 35,25 30,20
               L25,10
               L25,-35
               Z" 
            fill="url(#wingGradient)" 
            stroke="#f8bbd0" 
            stroke-width="1"/>
      <!-- Wing feather details -->
      <path d="M30,-30 C50,-35 70,-30 80,-15 M35,-25 C55,-30 70,-25 80,-10 M40,-20 C60,-25 70,-20 80,-5"
            fill="none" stroke="#f8bbd0" stroke-width="0.5" opacity="0.5"/>
    </g>
    
    <!-- Body/Robe -->
    <path d="M-15,-40 
             L-18,40
             C-18,50 -20,60 -22,70
             C-22,80 -15,85 0,85
             C15,85 22,80 22,70
             C20,60 18,50 18,40
             L15,-40
             Z" 
          fill="url(#robeGradient)" 
          stroke="#e91e63" 
          stroke-width="1"/>
    
    <!-- Robe details -->
    <line x1="0" y1="-35" x2="0" y2="70" stroke="#e91e63" stroke-width="0.5" opacity="0.5"/>
    <path d="M-10,60 C-5,65 5,65 10,60" fill="none" stroke="#e91e63" stroke-width="0.5" opacity="0.5"/>
    
    <!-- Arms -->
    <path d="M-15,-20 
             C-25,-15 -30,-5 -32,5
             C-33,10 -30,12 -25,10
             L-20,5
             L-15,-10" 
          fill="#fef8ff" 
          stroke="#f8bbd0" 
          stroke-width="1"/>
    
    <path d="M15,-20 
             C25,-15 30,-5 32,5
             C33,10 30,12 25,10
             L20,5
             L15,-10" 
          fill="#fef8ff" 
          stroke="#f8bbd0" 
          stroke-width="1"/>
    
    <!-- Face details -->
    <circle cx="-5" cy="-55" r="1.5" fill="#e91e63"/> <!-- Left eye -->
    <circle cx="5" cy="-55" r="1.5" fill="#e91e63"/> <!-- Right eye -->
    <path d="M-3,-50 C0,-48 3,-50" fill="none" stroke="#e91e63" stroke-width="0.5"/> <!-- Smile -->
    
    <!-- Sparkles around angel -->
    <g fill="#fce4ec" opacity="0.8">
      <path d="M-40,-80 L-38,-75 L-35,-73 L-38,-71 L-40,-66 L-42,-71 L-45,-73 L-42,-75 Z"/>
      <path d="M40,-80 L42,-75 L45,-73 L42,-71 L40,-66 L38,-71 L35,-73 L38,-75 Z"/>
      <path d="M-60,40 L-58,45 L-55,47 L-58,49 L-60,54 L-62,49 L-65,47 L-62,45 Z"/>
      <path d="M60,40 L62,45 L65,47 L62,49 L60,54 L58,49 L55,47 L58,45 Z"/>
    </g>
  </g>
</svg>
