<svg width="100" height="100" xmlns="http://www.w3.org/2000/svg">
  <defs>
    <linearGradient id="envelopeGradient" x1="0%" y1="0%" x2="0%" y2="100%">
      <stop offset="0%" stop-color="#fce4ec"/>
      <stop offset="100%" stop-color="#f8bbd0"/>
    </linearGradient>
    <radialGradient id="glowGradient" cx="50%" cy="50%" r="50%">
      <stop offset="0%" stop-color="#ffffff" stop-opacity="0.8"/>
      <stop offset="100%" stop-color="#fce4ec" stop-opacity="0.3"/>
    </radialGradient>
  </defs>
  
  <!-- Email Icon - Envelope with wings -->
  <g transform="translate(50, 50)">
    <!-- Background glow -->
    <circle cx="0" cy="0" r="35" fill="url(#glowGradient)" opacity="0.4"/>
    
    <!-- Wings behind envelope -->
    <g opacity="0.7">
      <!-- Left wing -->
      <path d="M-20,-5
               C-35,-15 -45,-20 -45,-30
               C-45,-35 -40,-35 -35,-30
               C-30,-25 -25,-20 -20,-15
               C-25,-10 -30,-5 -35,0
               C-40,5 -45,5 -45,0
               C-45,-10 -35,-15 -20,-5
               Z" 
            fill="#fce4ec" 
            stroke="#f8bbd0" 
            stroke-width="1"/>
      
      <!-- Right wing -->
      <path d="M20,-5
               C35,-15 45,-20 45,-30
               C45,-35 40,-35 35,-30
               C30,-25 25,-20 20,-15
               C25,-10 30,-5 35,0
               C40,5 45,5 45,0
               C45,-10 35,-15 20,-5
               Z" 
            fill="#fce4ec" 
            stroke="#f8bbd0" 
            stroke-width="1"/>
    </g>
    
    <!-- Main envelope -->
    <rect x="-30" y="-20" width="60" height="40" rx="4" fill="url(#envelopeGradient)" stroke="#e91e63" stroke-width="2"/>
    
    <!-- Envelope flap -->
    <path d="M-30,-20 
             L0,-5 
             L30,-20" 
          fill="#fce4ec" 
          stroke="#e91e63" 
          stroke-width="2"/>
    
    <!-- Letter inside with @ symbol -->
    <rect x="-22" y="-12" width="44" height="28" rx="2" fill="#ffffff" opacity="0.9"/>
    
    <!-- @ symbol on letter -->
    <g transform="translate(0, 2)">
      <circle cx="0" cy="0" r="10" fill="none" stroke="#e91e63" stroke-width="2"/>
      <circle cx="0" cy="0" r="4" fill="none" stroke="#e91e63" stroke-width="2"/>
      <path d="M10,0 L10,5 C10,8 8,10 5,10" fill="none" stroke="#e91e63" stroke-width="2"/>
    </g>
    
    <!-- Decorative elements -->
    <g fill="#f8bbd0" opacity="0.7">
      <!-- Small envelopes floating around -->
      <g transform="translate(-35, -30) scale(0.3)">
        <rect x="-10" y="-7" width="20" height="14" rx="2" fill="#f8bbd0"/>
        <path d="M-10,-7 L0,-2 L10,-7" fill="#fce4ec"/>
      </g>
      
      <g transform="translate(35, -30) scale(0.3)">
        <rect x="-10" y="-7" width="20" height="14" rx="2" fill="#f8bbd0"/>
        <path d="M-10,-7 L0,-2 L10,-7" fill="#fce4ec"/>
      </g>
      
      <!-- Sparkles -->
      <circle cx="-40" cy="20" r="2"/>
      <circle cx="40" cy="20" r="2"/>
      <circle cx="0" cy="-35" r="1.5"/>
      <circle cx="0" cy="35" r="1.5"/>
    </g>
  </g>
</svg>
