<svg width="100" height="100" xmlns="http://www.w3.org/2000/svg">
  <defs>
    <linearGradient id="bubbleGradient" x1="0%" y1="0%" x2="0%" y2="100%">
      <stop offset="0%" stop-color="#fce4ec"/>
      <stop offset="100%" stop-color="#f8bbd0"/>
    </linearGradient>
    <radialGradient id="glowGradient" cx="50%" cy="50%" r="50%">
      <stop offset="0%" stop-color="#ffffff" stop-opacity="0.8"/>
      <stop offset="100%" stop-color="#fce4ec" stop-opacity="0.3"/>
    </radialGradient>
    <filter id="glow" x="-30%" y="-30%" width="160%" height="160%">
      <feGaussianBlur stdDeviation="3" result="blur"/>
      <feComposite in="SourceGraphic" in2="blur" operator="over"/>
    </filter>
  </defs>
  
  <!-- Question Icon - Speech bubble with question mark and spiritual elements -->
  <g transform="translate(50, 50)">
    <!-- Background glow -->
    <circle cx="0" cy="0" r="40" fill="url(#glowGradient)" opacity="0.4"/>
    
    <!-- Speech bubble with smoother curves -->
    <path d="M-30,-25 
             L25,-25 
             C35,-25 40,-20 40,-10 
             L40,10 
             C40,20 35,25 25,25 
             L5,25 
             L0,35 
             L-5,25 
             L-25,25 
             C-35,25 -40,20 -40,10 
             L-40,-10 
             C-40,-20 -35,-25 -30,-25 
             Z" 
          fill="url(#bubbleGradient)" 
          stroke="#e91e63" 
          stroke-width="2"/>
    
    <!-- Question mark - more stylized -->
    <g transform="translate(0, -5)">
      <!-- Main curve of question mark -->
      <path d="M-8,-10 
               C-8,-18 0,-20 5,-18 
               C12,-16 15,-10 12,-5 
               C10,-2 5,0 0,3 
               L0,8" 
            fill="none" 
            stroke="#ffffff" 
            stroke-width="4" 
            stroke-linecap="round"/>
      <!-- Dot of question mark -->
      <circle cx="0" cy="15" r="3" fill="#ffffff"/>
    </g>
    
    <!-- Decorative elements -->
    <!-- Small circles representing thoughts -->
    <g fill="#fce4ec" opacity="0.6">
      <circle cx="-35" cy="-35" r="3"/>
      <circle cx="-30" cy="-40" r="2"/>
      <circle cx="-25" cy="-42" r="1.5"/>
      
      <circle cx="35" cy="-35" r="3"/>
      <circle cx="30" cy="-40" r="2"/>
      <circle cx="25" cy="-42" r="1.5"/>
    </g>
    
    <!-- Sparkles around bubble -->
    <g fill="#f8bbd0" opacity="0.8">
      <path d="M-45,-20 L-43,-16 L-39,-14 L-43,-12 L-45,-8 L-47,-12 L-51,-14 L-47,-16 Z"/>
      <path d="M45,-20 L47,-16 L51,-14 L47,-12 L45,-8 L43,-12 L39,-14 L43,-16 Z"/>
      <path d="M-35,35 L-33,39 L-29,41 L-33,43 L-35,47 L-37,43 L-41,41 L-37,39 Z"/>
      <path d="M35,35 L37,39 L41,41 L37,43 L35,47 L33,43 L29,41 L33,39 Z"/>
    </g>
    
    <!-- Inner glow -->
    <ellipse cx="0" cy="0" rx="25" ry="20" fill="#ffffff" opacity="0.1" filter="url(#glow)"/>
  </g>
</svg>
