<svg width="100" height="100" xmlns="http://www.w3.org/2000/svg">
  <defs>
    <radialGradient id="lotusGradient" cx="50%" cy="50%" r="50%">
      <stop offset="0%" stop-color="#ffffff"/>
      <stop offset="50%" stop-color="#fce4ec"/>
      <stop offset="100%" stop-color="#f8bbd0"/>
    </radialGradient>
    <linearGradient id="petalGradient" x1="0%" y1="0%" x2="0%" y2="100%">
      <stop offset="0%" stop-color="#fce4ec"/>
      <stop offset="100%" stop-color="#f8bbd0"/>
    </linearGradient>
    <filter id="glow" x="-30%" y="-30%" width="160%" height="160%">
      <feGaussianBlur stdDeviation="3" result="blur"/>
      <feComposite in="SourceGraphic" in2="blur" operator="over"/>
    </filter>
  </defs>
  
  <!-- Spiritual Icon - Lotus flower with divine light -->
  <g transform="translate(50, 50)">
    <!-- Background aura -->
    <circle cx="0" cy="0" r="40" fill="url(#lotusGradient)" opacity="0.3" filter="url(#glow)"/>
    
    <!-- Lotus flower petals - more detailed -->
    <!-- Bottom layer petals -->
    <g fill="url(#petalGradient)" stroke="#e91e63" stroke-width="1" opacity="0.8">
      <ellipse cx="-20" cy="10" rx="15" ry="25" transform="rotate(-30 -20 10)"/>
      <ellipse cx="20" cy="10" rx="15" ry="25" transform="rotate(30 20 10)"/>
      <ellipse cx="0" cy="15" rx="15" ry="25"/>
    </g>
    
    <!-- Middle layer petals -->
    <g fill="url(#petalGradient)" stroke="#e91e63" stroke-width="1" opacity="0.9">
      <ellipse cx="-15" cy="0" rx="12" ry="20" transform="rotate(-20 -15 0)"/>
      <ellipse cx="15" cy="0" rx="12" ry="20" transform="rotate(20 15 0)"/>
    </g>
    
    <!-- Top layer petals -->
    <g fill="#fce4ec" stroke="#e91e63" stroke-width="1">
      <ellipse cx="0" cy="-5" rx="10" ry="18"/>
      <ellipse cx="-10" cy="-3" rx="8" ry="15" transform="rotate(-15 -10 -3)"/>
      <ellipse cx="10" cy="-3" rx="8" ry="15" transform="rotate(15 10 -3)"/>
    </g>
    
    <!-- Sacred center -->
    <circle cx="0" cy="0" r="6" fill="#ffffff" stroke="#e91e63" stroke-width="1" filter="url(#glow)"/>
    <circle cx="0" cy="0" r="3" fill="#e91e63"/>
    
    <!-- Divine light rays -->
    <g stroke="#fce4ec" stroke-width="2" stroke-linecap="round" opacity="0.6">
      <line x1="0" y1="-20" x2="0" y2="-35"/>
      <line x1="14" y1="-14" x2="25" y2="-25"/>
      <line x1="20" y1="0" x2="35" y2="0"/>
      <line x1="14" y1="14" x2="25" y2="25"/>
      <line x1="0" y1="20" x2="0" y2="35"/>
      <line x1="-14" y1="14" x2="-25" y2="25"/>
      <line x1="-20" y1="0" x2="-35" y2="0"/>
      <line x1="-14" y1="-14" x2="-25" y2="-25"/>
    </g>
    
    <!-- Spiritual sparkles -->
    <g fill="#f8bbd0" opacity="0.8">
      <circle cx="-30" cy="-30" r="2"/>
      <circle cx="30" cy="-30" r="2"/>
      <circle cx="-30" cy="30" r="2"/>
      <circle cx="30" cy="30" r="2"/>
      <circle cx="0" cy="-40" r="1.5"/>
      <circle cx="0" cy="40" r="1.5"/>
      <circle cx="-40" cy="0" r="1.5"/>
      <circle cx="40" cy="0" r="1.5"/>
    </g>
  </g>
</svg>
