<svg width="100" height="100" xmlns="http://www.w3.org/2000/svg">
  <defs>
    <linearGradient id="heartGradient" x1="0%" y1="0%" x2="0%" y2="100%">
      <stop offset="0%" stop-color="#fce4ec"/>
      <stop offset="100%" stop-color="#f8bbd0"/>
    </linearGradient>
    <radialGradient id="glowGradient" cx="50%" cy="50%" r="50%">
      <stop offset="0%" stop-color="#ffffff" stop-opacity="0.8"/>
      <stop offset="100%" stop-color="#fce4ec" stop-opacity="0.3"/>
    </radialGradient>
  </defs>
  
  <!-- Therapy Icon - Heart with healing hands -->
  <g transform="translate(50, 50)">
    <!-- Background glow -->
    <circle cx="0" cy="0" r="35" fill="url(#glowGradient)" opacity="0.5"/>
    
    <!-- Heart shape -->
    <path d="M0,-5
             C-15,-25 -35,-25 -35,-10
             C-35,5 -20,20 0,35
             C20,20 35,5 35,-10
             C35,-25 15,-25 0,-5
             Z" 
          fill="url(#heartGradient)" 
          stroke="#e91e63" 
          stroke-width="2"/>
    
    <!-- Healing hands embracing the heart -->
    <!-- Left hand -->
    <g>
      <path d="M-25,0
               C-30,-5 -30,-10 -25,-15
               C-20,-20 -15,-20 -10,-15
               L-10,-5
               C-15,-5 -20,-5 -25,0
               Z" 
            fill="#ffffff" 
            stroke="#e91e63" 
            stroke-width="1" 
            opacity="0.9"/>
      <!-- Fingers -->
      <line x1="-10" y1="-15" x2="-10" y2="-5" stroke="#e91e63" stroke-width="0.5"/>
      <line x1="-15" y1="-17" x2="-15" y2="-7" stroke="#e91e63" stroke-width="0.5"/>
      <line x1="-20" y1="-18" x2="-20" y2="-8" stroke="#e91e63" stroke-width="0.5"/>
    </g>
    
    <!-- Right hand -->
    <g>
      <path d="M25,0
               C30,-5 30,-10 25,-15
               C20,-20 15,-20 10,-15
               L10,-5
               C15,-5 20,-5 25,0
               Z" 
            fill="#ffffff" 
            stroke="#e91e63" 
            stroke-width="1" 
            opacity="0.9"/>
      <!-- Fingers -->
      <line x1="10" y1="-15" x2="10" y2="-5" stroke="#e91e63" stroke-width="0.5"/>
      <line x1="15" y1="-17" x2="15" y2="-7" stroke="#e91e63" stroke-width="0.5"/>
      <line x1="20" y1="-18" x2="20" y2="-8" stroke="#e91e63" stroke-width="0.5"/>
    </g>
    
    <!-- Healing energy/light rays -->
    <g stroke="#fce4ec" stroke-width="1.5" stroke-linecap="round" opacity="0.8">
      <line x1="0" y1="-30" x2="0" y2="-20"/>
      <line x1="-15" y1="-25" x2="-10" y2="-18"/>
      <line x1="15" y1="-25" x2="10" y2="-18"/>
      <line x1="-25" y1="-10" x2="-18" y2="-8"/>
      <line x1="25" y1="-10" x2="18" y2="-8"/>
    </g>
    
    <!-- Central healing symbol -->
    <circle cx="0" cy="5" r="3" fill="#ffffff" opacity="0.9"/>
  </g>
</svg>
