<svg width="100" height="100" xmlns="http://www.w3.org/2000/svg">
  <defs>
    <radialGradient id="centerGradient" cx="50%" cy="50%" r="50%">
      <stop offset="0%" stop-color="#ffffff" stop-opacity="0.9"/>
      <stop offset="50%" stop-color="#fce4ec" stop-opacity="0.7"/>
      <stop offset="100%" stop-color="#f8bbd0" stop-opacity="0.5"/>
    </radialGradient>
    <linearGradient id="personGradient" x1="0%" y1="0%" x2="0%" y2="100%">
      <stop offset="0%" stop-color="#f8bbd0"/>
      <stop offset="100%" stop-color="#e91e63"/>
    </linearGradient>
  </defs>
  
  <!-- Workshop Icon - People in a circle with spiritual energy -->
  <g transform="translate(50, 50)">
    <!-- Outer circle representing unity -->
    <circle cx="0" cy="0" r="38" fill="none" stroke="#f8bbd0" stroke-width="1.5" opacity="0.5"/>
    <circle cx="0" cy="0" r="35" fill="none" stroke="#e91e63" stroke-width="2" stroke-dasharray="5 3" opacity="0.7"/>
    
    <!-- Central energy/light -->
    <circle cx="0" cy="0" r="18" fill="url(#centerGradient)" opacity="0.8"/>
    <circle cx="0" cy="0" r="10" fill="#ffffff" opacity="0.9"/>
    
    <!-- People figures - more detailed -->
    <g>
      <!-- Person 1 (top) -->
      <g transform="translate(0, -30)">
        <circle cx="0" cy="0" r="5" fill="url(#personGradient)"/>
        <path d="M-4,4 L-3,12 L3,12 L4,4 A4,4 0 0,0 -4,4" fill="url(#personGradient)"/>
        <!-- Arms -->
        <line x1="-3" y1="6" x2="-6" y2="9" stroke="#e91e63" stroke-width="1.5" stroke-linecap="round"/>
        <line x1="3" y1="6" x2="6" y2="9" stroke="#e91e63" stroke-width="1.5" stroke-linecap="round"/>
      </g>
      
      <!-- Person 2 (right) -->
      <g transform="translate(30, 0) rotate(90 0 0)">
        <circle cx="0" cy="0" r="5" fill="url(#personGradient)"/>
        <path d="M-4,4 L-3,12 L3,12 L4,4 A4,4 0 0,0 -4,4" fill="url(#personGradient)"/>
        <line x1="-3" y1="6" x2="-6" y2="9" stroke="#e91e63" stroke-width="1.5" stroke-linecap="round"/>
        <line x1="3" y1="6" x2="6" y2="9" stroke="#e91e63" stroke-width="1.5" stroke-linecap="round"/>
      </g>
      
      <!-- Person 3 (bottom) -->
      <g transform="translate(0, 30) rotate(180 0 0)">
        <circle cx="0" cy="0" r="5" fill="url(#personGradient)"/>
        <path d="M-4,4 L-3,12 L3,12 L4,4 A4,4 0 0,0 -4,4" fill="url(#personGradient)"/>
        <line x1="-3" y1="6" x2="-6" y2="9" stroke="#e91e63" stroke-width="1.5" stroke-linecap="round"/>
        <line x1="3" y1="6" x2="6" y2="9" stroke="#e91e63" stroke-width="1.5" stroke-linecap="round"/>
      </g>
      
      <!-- Person 4 (left) -->
      <g transform="translate(-30, 0) rotate(-90 0 0)">
        <circle cx="0" cy="0" r="5" fill="url(#personGradient)"/>
        <path d="M-4,4 L-3,12 L3,12 L4,4 A4,4 0 0,0 -4,4" fill="url(#personGradient)"/>
        <line x1="-3" y1="6" x2="-6" y2="9" stroke="#e91e63" stroke-width="1.5" stroke-linecap="round"/>
        <line x1="3" y1="6" x2="6" y2="9" stroke="#e91e63" stroke-width="1.5" stroke-linecap="round"/>
      </g>
      
      <!-- Diagonal people -->
      <g transform="translate(21, -21) rotate(45 0 0)">
        <circle cx="0" cy="0" r="4.5" fill="url(#personGradient)"/>
        <path d="M-3.5,3.5 L-2.5,10 L2.5,10 L3.5,3.5 A3.5,3.5 0 0,0 -3.5,3.5" fill="url(#personGradient)"/>
      </g>
      
      <g transform="translate(21, 21) rotate(135 0 0)">
        <circle cx="0" cy="0" r="4.5" fill="url(#personGradient)"/>
        <path d="M-3.5,3.5 L-2.5,10 L2.5,10 L3.5,3.5 A3.5,3.5 0 0,0 -3.5,3.5" fill="url(#personGradient)"/>
      </g>
      
      <g transform="translate(-21, 21) rotate(-135 0 0)">
        <circle cx="0" cy="0" r="4.5" fill="url(#personGradient)"/>
        <path d="M-3.5,3.5 L-2.5,10 L2.5,10 L3.5,3.5 A3.5,3.5 0 0,0 -3.5,3.5" fill="url(#personGradient)"/>
      </g>
      
      <g transform="translate(-21, -21) rotate(-45 0 0)">
        <circle cx="0" cy="0" r="4.5" fill="url(#personGradient)"/>
        <path d="M-3.5,3.5 L-2.5,10 L2.5,10 L3.5,3.5 A3.5,3.5 0 0,0 -3.5,3.5" fill="url(#personGradient)"/>
      </g>
    </g>
    
    <!-- Energy connections between people -->
    <g stroke="#fce4ec" stroke-width="1" stroke-linecap="round" opacity="0.6">
      <path d="M0,-20 Q-10,-10 -20,0 Q-10,10 0,20 Q10,10 20,0 Q10,-10 0,-20" fill="none"/>
    </g>
    
    <!-- Light rays from center -->
    <g stroke="#fce4ec" stroke-width="1.5" stroke-linecap="round" opacity="0.7">
      <line x1="0" y1="-10" x2="0" y2="-18"/>
      <line x1="10" y1="0" x2="18" y2="0"/>
      <line x1="0" y1="10" x2="0" y2="18"/>
      <line x1="-10" y1="0" x2="-18" y2="0"/>
      <line x1="7" y1="-7" x2="13" y2="-13"/>
      <line x1="7" y1="7" x2="13" y2="13"/>
      <line x1="-7" y1="7" x2="-13" y2="13"/>
      <line x1="-7" y1="-7" x2="-13" y2="-13"/>
    </g>
  </g>
</svg>
